%TF.GenerationSoftware,KiCad,Pcbnew,8.0.8*%
%TF.CreationDate,2025-03-10T16:10:23+01:00*%
%TF.ProjectId,DIYFAN _interface_V1,44495946-414e-4205-9f69-6e7465726661,rev?*%
%TF.SameCoordinates,Original*%
%TF.FileFunction,Copper,L1,Top*%
%TF.FilePolarity,Positive*%
%FSLAX46Y46*%
G04 Gerber Fmt 4.6, Leading zero omitted, Abs format (unit mm)*
G04 Created by KiCad (PCBNEW 8.0.8) date 2025-03-10 16:10:23*
%MOMM*%
%LPD*%
G01*
G04 APERTURE LIST*
%TA.AperFunction,ComponentPad*%
%ADD10C,1.400000*%
%TD*%
%TA.AperFunction,ComponentPad*%
%ADD11R,1.400000X1.400000*%
%TD*%
%TA.AperFunction,ComponentPad*%
%ADD12R,1.530000X1.530000*%
%TD*%
%TA.AperFunction,ComponentPad*%
%ADD13C,1.550000*%
%TD*%
G04 APERTURE END LIST*
D10*
%TO.P,J2,8,8*%
%TO.N,GND*%
X172842000Y-85725000D03*
%TO.P,J2,7,7*%
%TO.N,+12V*%
X175382000Y-86995000D03*
%TO.P,J2,6,6*%
%TO.N,GND*%
X172842000Y-88265000D03*
%TO.P,J2,5,5*%
%TO.N,+12V*%
X175382000Y-89535000D03*
%TO.P,J2,4,4*%
%TO.N,GND*%
X172842000Y-90805000D03*
%TO.P,J2,3,3*%
%TO.N,+12V*%
X175382000Y-92075000D03*
%TO.P,J2,2,2*%
%TO.N,unconnected-(J2-Pad2)*%
X172842000Y-93345000D03*
D11*
%TO.P,J2,1,1*%
%TO.N,PWM_D9*%
X175382000Y-94615000D03*
%TD*%
%TO.P,J1,1,1*%
%TO.N,PWM_D9*%
X127132000Y-85725000D03*
D10*
%TO.P,J1,2,2*%
%TO.N,unconnected-(J1-Pad2)*%
X129672000Y-86995000D03*
%TO.P,J1,3,3*%
%TO.N,+12V*%
X127132000Y-88265000D03*
%TO.P,J1,4,4*%
%TO.N,GND*%
X129672000Y-89535000D03*
%TO.P,J1,5,5*%
%TO.N,+12V*%
X127132000Y-90805000D03*
%TO.P,J1,6,6*%
%TO.N,GND*%
X129672000Y-92075000D03*
%TO.P,J1,7,7*%
%TO.N,+12V*%
X127132000Y-93345000D03*
%TO.P,J1,8,8*%
%TO.N,GND*%
X129672000Y-94615000D03*
%TD*%
D12*
%TO.P,J3,1,1*%
%TO.N,GND*%
X155286000Y-90415000D03*
D13*
%TO.P,J3,2,2*%
%TO.N,+12V*%
X152746000Y-90415000D03*
%TO.P,J3,3,3*%
%TO.N,unconnected-(J3-Pad3)*%
X150206000Y-90415000D03*
%TO.P,J3,4,4*%
%TO.N,PWM_D9*%
X147666000Y-90415000D03*
%TD*%
%TA.AperFunction,Conductor*%
%TO.N,+12V*%
G36*
X202642539Y-79260185D02*
G01*
X202688294Y-79312989D01*
X202699500Y-79364500D01*
X202699500Y-100975500D01*
X202679815Y-101042539D01*
X202627011Y-101088294D01*
X202575500Y-101099500D01*
X99938500Y-101099500D01*
X99871461Y-101079815D01*
X99825706Y-101027011D01*
X99814500Y-100975500D01*
X99814500Y-95763711D01*
X118931500Y-95763711D01*
X118931500Y-96006288D01*
X118963161Y-96246785D01*
X119025947Y-96481104D01*
X119118773Y-96705205D01*
X119118776Y-96705212D01*
X119240064Y-96915289D01*
X119240066Y-96915292D01*
X119240067Y-96915293D01*
X119387733Y-97107736D01*
X119387739Y-97107743D01*
X119559256Y-97279260D01*
X119559262Y-97279265D01*
X119751711Y-97426936D01*
X119961788Y-97548224D01*
X120185900Y-97641054D01*
X120420211Y-97703838D01*
X120600586Y-97727584D01*
X120660711Y-97735500D01*
X120660712Y-97735500D01*
X120903289Y-97735500D01*
X120951388Y-97729167D01*
X121143789Y-97703838D01*
X121378100Y-97641054D01*
X121602212Y-97548224D01*
X121812289Y-97426936D01*
X122004738Y-97279265D01*
X122176265Y-97107738D01*
X122323936Y-96915289D01*
X122445224Y-96705212D01*
X122538054Y-96481100D01*
X122600838Y-96246789D01*
X122632500Y-96006288D01*
X122632500Y-95763712D01*
X122631852Y-95758793D01*
X122607936Y-95577125D01*
X122600838Y-95523211D01*
X122538054Y-95288900D01*
X122445224Y-95064788D01*
X122323936Y-94854711D01*
X122176265Y-94662262D01*
X122176260Y-94662256D01*
X122004743Y-94490739D01*
X122004736Y-94490733D01*
X121812293Y-94343067D01*
X121812292Y-94343066D01*
X121812289Y-94343064D01*
X121602212Y-94221776D01*
X121500091Y-94179476D01*
X121378104Y-94128947D01*
X121143785Y-94066161D01*
X120903289Y-94034500D01*
X120903288Y-94034500D01*
X120660712Y-94034500D01*
X120660711Y-94034500D01*
X120420214Y-94066161D01*
X120185895Y-94128947D01*
X119961794Y-94221773D01*
X119961785Y-94221777D01*
X119751706Y-94343067D01*
X119559263Y-94490733D01*
X119559256Y-94490739D01*
X119387739Y-94662256D01*
X119387733Y-94662263D01*
X119240067Y-94854706D01*
X119118777Y-95064785D01*
X119118773Y-95064794D01*
X119025947Y-95288895D01*
X118963161Y-95523214D01*
X118931500Y-95763711D01*
X99814500Y-95763711D01*
X99814500Y-90048711D01*
X106861500Y-90048711D01*
X106861500Y-90291288D01*
X106893161Y-90531785D01*
X106955947Y-90766104D01*
X107048773Y-90990205D01*
X107048777Y-90990214D01*
X107051975Y-90995753D01*
X107170064Y-91200289D01*
X107170066Y-91200292D01*
X107170067Y-91200293D01*
X107317733Y-91392736D01*
X107317739Y-91392743D01*
X107489256Y-91564260D01*
X107489263Y-91564266D01*
X107587260Y-91639461D01*
X107681711Y-91711936D01*
X107891788Y-91833224D01*
X108115900Y-91926054D01*
X108350211Y-91988838D01*
X108530586Y-92012584D01*
X108590711Y-92020500D01*
X108590712Y-92020500D01*
X108833289Y-92020500D01*
X108881388Y-92014167D01*
X109073789Y-91988838D01*
X109308100Y-91926054D01*
X109532212Y-91833224D01*
X109742289Y-91711936D01*
X109934738Y-91564265D01*
X110106265Y-91392738D01*
X110253936Y-91200289D01*
X110375224Y-90990212D01*
X110468054Y-90766100D01*
X110530838Y-90531789D01*
X110562500Y-90291288D01*
X110562500Y-90048712D01*
X110530838Y-89808211D01*
X110468054Y-89573900D01*
X110375224Y-89349788D01*
X110253936Y-89139711D01*
X110106265Y-88947262D01*
X110106260Y-88947256D01*
X109934743Y-88775739D01*
X109934736Y-88775733D01*
X109742293Y-88628067D01*
X109742292Y-88628066D01*
X109742289Y-88628064D01*
X109532212Y-88506776D01*
X109483351Y-88486537D01*
X109308104Y-88413947D01*
X109164178Y-88375382D01*
X109073789Y-88351162D01*
X109073788Y-88351161D01*
X109073785Y-88351161D01*
X108833289Y-88319500D01*
X108833288Y-88319500D01*
X108590712Y-88319500D01*
X108590711Y-88319500D01*
X108350214Y-88351161D01*
X108115895Y-88413947D01*
X107891794Y-88506773D01*
X107891785Y-88506777D01*
X107681706Y-88628067D01*
X107489263Y-88775733D01*
X107489256Y-88775739D01*
X107317739Y-88947256D01*
X107317733Y-88947263D01*
X107170067Y-89139706D01*
X107170064Y-89139710D01*
X107170064Y-89139711D01*
X107161483Y-89154573D01*
X107048777Y-89349785D01*
X107048773Y-89349794D01*
X106955947Y-89573895D01*
X106893161Y-89808214D01*
X106861500Y-90048711D01*
X99814500Y-90048711D01*
X99814500Y-88264999D01*
X125926859Y-88264999D01*
X125926859Y-88265000D01*
X125947378Y-88486439D01*
X126008240Y-88700350D01*
X126107364Y-88899419D01*
X126107366Y-88899421D01*
X126123138Y-88920306D01*
X126689861Y-88353584D01*
X126712667Y-88438694D01*
X126771910Y-88541306D01*
X126855694Y-88625090D01*
X126958306Y-88684333D01*
X127043415Y-88707138D01*
X126478671Y-89271880D01*
X126594823Y-89343798D01*
X126594824Y-89343799D01*
X126789903Y-89419373D01*
X126845305Y-89461946D01*
X126868895Y-89527713D01*
X126853184Y-89595793D01*
X126803160Y-89644572D01*
X126789903Y-89650627D01*
X126594824Y-89726200D01*
X126594818Y-89726204D01*
X126478672Y-89798117D01*
X126478671Y-89798118D01*
X127043415Y-90362861D01*
X126958306Y-90385667D01*
X126855694Y-90444910D01*
X126771910Y-90528694D01*
X126712667Y-90631306D01*
X126689861Y-90716414D01*
X126123138Y-90149691D01*
X126123137Y-90149691D01*
X126107369Y-90170571D01*
X126008240Y-90369649D01*
X125947378Y-90583560D01*
X125926859Y-90804999D01*
X125926859Y-90805000D01*
X125947378Y-91026439D01*
X126008240Y-91240350D01*
X126107364Y-91439419D01*
X126107366Y-91439421D01*
X126123138Y-91460306D01*
X126689861Y-90893584D01*
X126712667Y-90978694D01*
X126771910Y-91081306D01*
X126855694Y-91165090D01*
X126958306Y-91224333D01*
X127043415Y-91247138D01*
X126478671Y-91811880D01*
X126594823Y-91883798D01*
X126594824Y-91883799D01*
X126789903Y-91959373D01*
X126845305Y-92001946D01*
X126868895Y-92067713D01*
X126853184Y-92135793D01*
X126803160Y-92184572D01*
X126789903Y-92190627D01*
X126594824Y-92266200D01*
X126594818Y-92266204D01*
X126478672Y-92338117D01*
X126478671Y-92338118D01*
X127043415Y-92902861D01*
X126958306Y-92925667D01*
X126855694Y-92984910D01*
X126771910Y-93068694D01*
X126712667Y-93171306D01*
X126689861Y-93256414D01*
X126123138Y-92689691D01*
X126123137Y-92689691D01*
X126107369Y-92710571D01*
X126008240Y-92909649D01*
X125947378Y-93123560D01*
X125926859Y-93344999D01*
X125926859Y-93345000D01*
X125947378Y-93566439D01*
X126008240Y-93780350D01*
X126107364Y-93979419D01*
X126107366Y-93979421D01*
X126123138Y-94000306D01*
X126689861Y-93433584D01*
X126712667Y-93518694D01*
X126771910Y-93621306D01*
X126855694Y-93705090D01*
X126958306Y-93764333D01*
X127043415Y-93787138D01*
X126478671Y-94351880D01*
X126594823Y-94423798D01*
X126594824Y-94423799D01*
X126802195Y-94504134D01*
X127020807Y-94545000D01*
X127243193Y-94545000D01*
X127461804Y-94504134D01*
X127669177Y-94423798D01*
X127669178Y-94423797D01*
X127785327Y-94351880D01*
X127220585Y-93787138D01*
X127305694Y-93764333D01*
X127408306Y-93705090D01*
X127492090Y-93621306D01*
X127551333Y-93518694D01*
X127574138Y-93433584D01*
X128140860Y-94000306D01*
X128140861Y-94000306D01*
X128156631Y-93979425D01*
X128156632Y-93979422D01*
X128255759Y-93780350D01*
X128316621Y-93566439D01*
X128337141Y-93345000D01*
X128337141Y-93344999D01*
X128316621Y-93123560D01*
X128255759Y-92909649D01*
X128156633Y-92710577D01*
X128156631Y-92710574D01*
X128140860Y-92689691D01*
X127574137Y-93256414D01*
X127551333Y-93171306D01*
X127492090Y-93068694D01*
X127408306Y-92984910D01*
X127305694Y-92925667D01*
X127220584Y-92902861D01*
X127785327Y-92338118D01*
X127785326Y-92338117D01*
X127669181Y-92266203D01*
X127669175Y-92266200D01*
X127474096Y-92190627D01*
X127418695Y-92148054D01*
X127395104Y-92082287D01*
X127410815Y-92014207D01*
X127460839Y-91965428D01*
X127474096Y-91959373D01*
X127669177Y-91883798D01*
X127669178Y-91883797D01*
X127785327Y-91811880D01*
X127220585Y-91247138D01*
X127305694Y-91224333D01*
X127408306Y-91165090D01*
X127492090Y-91081306D01*
X127551333Y-90978694D01*
X127574138Y-90893584D01*
X128140860Y-91460306D01*
X128140861Y-91460306D01*
X128156631Y-91439425D01*
X128156632Y-91439422D01*
X128255759Y-91240350D01*
X128316621Y-91026439D01*
X128337141Y-90805000D01*
X128337141Y-90804999D01*
X128316621Y-90583560D01*
X128255759Y-90369649D01*
X128156633Y-90170577D01*
X128156631Y-90170574D01*
X128140860Y-90149691D01*
X127574137Y-90716414D01*
X127551333Y-90631306D01*
X127492090Y-90528694D01*
X127408306Y-90444910D01*
X127305694Y-90385667D01*
X127220584Y-90362861D01*
X127785327Y-89798118D01*
X127785326Y-89798117D01*
X127669181Y-89726203D01*
X127669175Y-89726200D01*
X127474096Y-89650627D01*
X127418695Y-89608054D01*
X127395104Y-89542287D01*
X127410815Y-89474207D01*
X127460839Y-89425428D01*
X127474096Y-89419373D01*
X127669177Y-89343798D01*
X127669178Y-89343797D01*
X127785327Y-89271880D01*
X127220585Y-88707138D01*
X127305694Y-88684333D01*
X127408306Y-88625090D01*
X127492090Y-88541306D01*
X127551333Y-88438694D01*
X127574138Y-88353584D01*
X128140860Y-88920306D01*
X128140861Y-88920306D01*
X128156631Y-88899425D01*
X128156632Y-88899422D01*
X128255759Y-88700350D01*
X128316621Y-88486439D01*
X128337141Y-88265000D01*
X128337141Y-88264999D01*
X128316621Y-88043560D01*
X128255759Y-87829649D01*
X128156633Y-87630577D01*
X128156631Y-87630574D01*
X128140860Y-87609691D01*
X127574137Y-88176414D01*
X127551333Y-88091306D01*
X127492090Y-87988694D01*
X127408306Y-87904910D01*
X127305694Y-87845667D01*
X127220584Y-87822861D01*
X127785327Y-87258118D01*
X127785326Y-87258117D01*
X127669181Y-87186203D01*
X127669166Y-87186196D01*
X127614775Y-87165125D01*
X127559373Y-87122553D01*
X127535783Y-87056786D01*
X127551494Y-86988705D01*
X127601518Y-86939927D01*
X127659568Y-86925499D01*
X127879872Y-86925499D01*
X127939483Y-86919091D01*
X128074331Y-86868796D01*
X128189546Y-86782546D01*
X128264659Y-86682207D01*
X128320590Y-86640339D01*
X128390281Y-86635355D01*
X128451604Y-86668840D01*
X128485089Y-86730163D01*
X128487394Y-86767962D01*
X128466357Y-86994998D01*
X128466357Y-86995000D01*
X128486884Y-87216535D01*
X128486885Y-87216537D01*
X128547769Y-87430523D01*
X128547775Y-87430538D01*
X128646938Y-87629683D01*
X128646943Y-87629691D01*
X128781020Y-87807238D01*
X128945437Y-87957123D01*
X128945439Y-87957125D01*
X129134595Y-88074245D01*
X129134596Y-88074245D01*
X129134599Y-88074247D01*
X129328524Y-88149374D01*
X129383924Y-88191946D01*
X129407515Y-88257713D01*
X129391804Y-88325793D01*
X129341780Y-88374572D01*
X129328533Y-88380622D01*
X129180488Y-88437975D01*
X129134601Y-88455752D01*
X129134595Y-88455754D01*
X128945439Y-88572874D01*
X128945437Y-88572876D01*
X128781020Y-88722761D01*
X128646943Y-88900308D01*
X128646938Y-88900316D01*
X128547775Y-89099461D01*
X128547769Y-89099476D01*
X128486885Y-89313462D01*
X128486884Y-89313464D01*
X128466357Y-89534999D01*
X128466357Y-89535000D01*
X128486884Y-89756535D01*
X128486885Y-89756537D01*
X128547769Y-89970523D01*
X128547775Y-89970538D01*
X128646938Y-90169683D01*
X128646943Y-90169691D01*
X128781020Y-90347238D01*
X128945437Y-90497123D01*
X128945439Y-90497125D01*
X129134595Y-90614245D01*
X129134596Y-90614245D01*
X129134599Y-90614247D01*
X129328524Y-90689374D01*
X129383924Y-90731946D01*
X129407515Y-90797713D01*
X129391804Y-90865793D01*
X129341780Y-90914572D01*
X129328533Y-90920622D01*
X129251230Y-90950570D01*
X129134601Y-90995752D01*
X129134595Y-90995754D01*
X128945439Y-91112874D01*
X128945437Y-91112876D01*
X128781020Y-91262761D01*
X128646943Y-91440308D01*
X128646938Y-91440316D01*
X128547775Y-91639461D01*
X128547769Y-91639476D01*
X128486885Y-91853462D01*
X128486884Y-91853464D01*
X128466357Y-92074999D01*
X128466357Y-92075000D01*
X128486884Y-92296535D01*
X128486885Y-92296537D01*
X128547769Y-92510523D01*
X128547775Y-92510538D01*
X128646938Y-92709683D01*
X128646943Y-92709691D01*
X128781020Y-92887238D01*
X128945437Y-93037123D01*
X128945439Y-93037125D01*
X129134595Y-93154245D01*
X129134596Y-93154245D01*
X129134599Y-93154247D01*
X129328524Y-93229374D01*
X129383924Y-93271946D01*
X129407515Y-93337713D01*
X129391804Y-93405793D01*
X129341780Y-93454572D01*
X129328533Y-93460622D01*
X129180488Y-93517975D01*
X129134601Y-93535752D01*
X129134595Y-93535754D01*
X128945439Y-93652874D01*
X128945437Y-93652876D01*
X128781020Y-93802761D01*
X128646943Y-93980308D01*
X128646938Y-93980316D01*
X128547775Y-94179461D01*
X128547769Y-94179476D01*
X128486885Y-94393462D01*
X128486884Y-94393464D01*
X128466357Y-94614999D01*
X128466357Y-94615000D01*
X128486884Y-94836535D01*
X128486885Y-94836537D01*
X128547769Y-95050523D01*
X128547775Y-95050538D01*
X128646938Y-95249683D01*
X128646943Y-95249691D01*
X128781020Y-95427238D01*
X128945437Y-95577123D01*
X128945439Y-95577125D01*
X129134595Y-95694245D01*
X129134596Y-95694245D01*
X129134599Y-95694247D01*
X129342060Y-95774618D01*
X129560757Y-95815500D01*
X129560759Y-95815500D01*
X129783241Y-95815500D01*
X129783243Y-95815500D01*
X130001940Y-95774618D01*
X130209401Y-95694247D01*
X130398562Y-95577124D01*
X130562981Y-95427236D01*
X130697058Y-95249689D01*
X130796229Y-95050528D01*
X130857115Y-94836536D01*
X130877643Y-94615000D01*
X130857115Y-94393464D01*
X130796229Y-94179472D01*
X130785157Y-94157236D01*
X130697061Y-93980316D01*
X130697056Y-93980308D01*
X130562979Y-93802761D01*
X130398562Y-93652876D01*
X130398560Y-93652874D01*
X130209404Y-93535754D01*
X130209395Y-93535750D01*
X130115956Y-93499552D01*
X130015475Y-93460625D01*
X129960075Y-93418054D01*
X129936484Y-93352288D01*
X129952195Y-93284207D01*
X130002219Y-93235428D01*
X130015466Y-93229377D01*
X130209401Y-93154247D01*
X130398562Y-93037124D01*
X130562981Y-92887236D01*
X130697058Y-92709689D01*
X130796229Y-92510528D01*
X130857115Y-92296536D01*
X130877643Y-92075000D01*
X130857115Y-91853464D01*
X130796229Y-91639472D01*
X130788424Y-91623797D01*
X130697061Y-91440316D01*
X130697056Y-91440308D01*
X130562979Y-91262761D01*
X130398562Y-91112876D01*
X130398560Y-91112874D01*
X130209404Y-90995754D01*
X130209395Y-90995750D01*
X130091242Y-90949978D01*
X130015475Y-90920625D01*
X129960075Y-90878054D01*
X129936484Y-90812288D01*
X129952195Y-90744207D01*
X130002219Y-90695428D01*
X130015466Y-90689377D01*
X130209401Y-90614247D01*
X130398562Y-90497124D01*
X130488649Y-90414999D01*
X146385628Y-90414999D01*
X146385628Y-90415000D01*
X146405079Y-90637329D01*
X146405081Y-90637339D01*
X146462841Y-90852905D01*
X146462843Y-90852909D01*
X146462844Y-90852913D01*
X146557165Y-91055186D01*
X146685178Y-91238007D01*
X146842993Y-91395822D01*
X147025814Y-91523835D01*
X147228087Y-91618156D01*
X147228093Y-91618157D01*
X147228094Y-91618158D01*
X147253629Y-91625000D01*
X147443666Y-91675920D01*
X147621533Y-91691481D01*
X147665999Y-91695372D01*
X147666000Y-91695372D01*
X147666001Y-91695372D01*
X147703055Y-91692130D01*
X147888334Y-91675920D01*
X148103913Y-91618156D01*
X148306186Y-91523835D01*
X148489007Y-91395822D01*
X148646822Y-91238007D01*
X148774835Y-91055186D01*
X148823618Y-90950569D01*
X148869790Y-90898130D01*
X148936983Y-90878978D01*
X149003865Y-90899193D01*
X149048382Y-90950570D01*
X149069659Y-90996200D01*
X149097165Y-91055186D01*
X149225178Y-91238007D01*
X149382993Y-91395822D01*
X149565814Y-91523835D01*
X149715133Y-91593463D01*
X149767573Y-91639635D01*
X149786725Y-91706828D01*
X149766510Y-91773709D01*
X149731621Y-91808947D01*
X149631961Y-91875538D01*
X149506538Y-92000961D01*
X149506535Y-92000965D01*
X149407990Y-92148446D01*
X149407983Y-92148459D01*
X149340106Y-92312332D01*
X149340103Y-92312341D01*
X149305500Y-92486304D01*
X149305500Y-92663695D01*
X149340103Y-92837658D01*
X149340106Y-92837667D01*
X149407983Y-93001540D01*
X149407990Y-93001553D01*
X149506535Y-93149034D01*
X149506538Y-93149038D01*
X149631961Y-93274461D01*
X149631965Y-93274464D01*
X149779446Y-93373009D01*
X149779459Y-93373016D01*
X149879615Y-93414501D01*
X149943334Y-93440894D01*
X149943336Y-93440894D01*
X149943341Y-93440896D01*
X150117304Y-93475499D01*
X150117307Y-93475500D01*
X150117309Y-93475500D01*
X150294693Y-93475500D01*
X150294694Y-93475499D01*
X150369462Y-93460627D01*
X150468658Y-93440896D01*
X150468661Y-93440894D01*
X150468666Y-93440894D01*
X150632547Y-93373013D01*
X150780035Y-93274464D01*
X150905464Y-93149035D01*
X151004013Y-93001547D01*
X151071894Y-92837666D01*
X151106500Y-92663691D01*
X151106500Y-92486309D01*
X151106500Y-92486306D01*
X151106499Y-92486304D01*
X151071896Y-92312341D01*
X151071893Y-92312332D01*
X151004016Y-92148459D01*
X151004009Y-92148446D01*
X150905464Y-92000965D01*
X150905461Y-92000961D01*
X150780038Y-91875538D01*
X150780034Y-91875535D01*
X150680379Y-91808947D01*
X150635574Y-91755334D01*
X150626867Y-91686009D01*
X150657022Y-91622982D01*
X150696859Y-91593466D01*
X150846186Y-91523835D01*
X151029007Y-91395822D01*
X151186822Y-91238007D01*
X151314835Y-91055186D01*
X151363894Y-90949977D01*
X151410066Y-90897538D01*
X151477259Y-90878386D01*
X151544141Y-90898601D01*
X151588658Y-90949978D01*
X151637596Y-91054928D01*
X151684924Y-91122520D01*
X152254871Y-90552574D01*
X152270755Y-90611853D01*
X152337898Y-90728147D01*
X152432853Y-90823102D01*
X152549147Y-90890245D01*
X152608425Y-90906128D01*
X152038477Y-91476074D01*
X152106066Y-91523400D01*
X152106068Y-91523401D01*
X152308252Y-91617681D01*
X152308263Y-91617685D01*
X152523751Y-91675425D01*
X152523758Y-91675426D01*
X152745998Y-91694870D01*
X152746002Y-91694870D01*
X152968241Y-91675426D01*
X152968248Y-91675425D01*
X153183736Y-91617685D01*
X153183747Y-91617681D01*
X153385931Y-91523401D01*
X153385941Y-91523395D01*
X153453521Y-91476075D01*
X152883574Y-90906128D01*
X152942853Y-90890245D01*
X153059147Y-90823102D01*
X153154102Y-90728147D01*
X153221245Y-90611853D01*
X153237128Y-90552574D01*
X153807075Y-91122521D01*
X153817805Y-91121582D01*
X153849500Y-91096247D01*
X153918998Y-91089053D01*
X153981354Y-91120575D01*
X154016768Y-91180804D01*
X154020500Y-91210989D01*
X154020500Y-91227867D01*
X154020501Y-91227876D01*
X154026908Y-91287483D01*
X154077202Y-91422328D01*
X154077206Y-91422335D01*
X154163452Y-91537544D01*
X154163455Y-91537547D01*
X154278664Y-91623793D01*
X154278671Y-91623797D01*
X154413517Y-91674091D01*
X154413516Y-91674091D01*
X154420444Y-91674835D01*
X154473127Y-91680500D01*
X156098872Y-91680499D01*
X156158483Y-91674091D01*
X156293331Y-91623796D01*
X156408546Y-91537546D01*
X156494796Y-91422331D01*
X156545091Y-91287483D01*
X156551500Y-91227873D01*
X156551499Y-89602128D01*
X156545091Y-89542517D01*
X156545005Y-89542287D01*
X156494797Y-89407671D01*
X156494793Y-89407664D01*
X156408547Y-89292455D01*
X156408544Y-89292452D01*
X156293335Y-89206206D01*
X156293328Y-89206202D01*
X156158482Y-89155908D01*
X156158483Y-89155908D01*
X156098883Y-89149501D01*
X156098881Y-89149500D01*
X156098873Y-89149500D01*
X156098864Y-89149500D01*
X154473129Y-89149500D01*
X154473123Y-89149501D01*
X154413516Y-89155908D01*
X154278671Y-89206202D01*
X154278664Y-89206206D01*
X154163455Y-89292452D01*
X154163452Y-89292455D01*
X154077206Y-89407664D01*
X154077202Y-89407671D01*
X154026908Y-89542517D01*
X154021181Y-89595793D01*
X154020501Y-89602123D01*
X154020500Y-89602135D01*
X154020500Y-89619002D01*
X154000815Y-89686041D01*
X153948011Y-89731796D01*
X153878853Y-89741740D01*
X153815297Y-89712715D01*
X153810873Y-89707809D01*
X153807074Y-89707477D01*
X153237128Y-90277424D01*
X153221245Y-90218147D01*
X153154102Y-90101853D01*
X153059147Y-90006898D01*
X152942853Y-89939755D01*
X152883574Y-89923871D01*
X153453521Y-89353924D01*
X153385928Y-89306596D01*
X153183747Y-89212318D01*
X153183736Y-89212314D01*
X152968248Y-89154574D01*
X152968241Y-89154573D01*
X152746002Y-89135130D01*
X152745998Y-89135130D01*
X152523758Y-89154573D01*
X152523751Y-89154574D01*
X152308263Y-89212314D01*
X152308252Y-89212318D01*
X152106064Y-89306600D01*
X152106062Y-89306601D01*
X152038478Y-89353923D01*
X152038477Y-89353924D01*
X152608425Y-89923871D01*
X152549147Y-89939755D01*
X152432853Y-90006898D01*
X152337898Y-90101853D01*
X152270755Y-90218147D01*
X152254871Y-90277424D01*
X151684924Y-89707477D01*
X151684923Y-89707478D01*
X151637602Y-89775061D01*
X151588658Y-89880022D01*
X151542486Y-89932461D01*
X151475292Y-89951613D01*
X151408411Y-89931397D01*
X151363894Y-89880022D01*
X151314835Y-89774814D01*
X151302037Y-89756537D01*
X151186822Y-89591993D01*
X151029007Y-89434178D01*
X150846186Y-89306165D01*
X150643913Y-89211844D01*
X150643909Y-89211843D01*
X150643905Y-89211841D01*
X150428339Y-89154081D01*
X150428329Y-89154079D01*
X150206001Y-89134628D01*
X150205999Y-89134628D01*
X149983670Y-89154079D01*
X149983660Y-89154081D01*
X149768094Y-89211841D01*
X149768087Y-89211843D01*
X149768087Y-89211844D01*
X149565814Y-89306165D01*
X149382993Y-89434178D01*
X149382991Y-89434179D01*
X149382988Y-89434182D01*
X149225182Y-89591988D01*
X149225179Y-89591991D01*
X149225178Y-89591993D01*
X149213932Y-89608054D01*
X149097164Y-89774814D01*
X149048382Y-89879430D01*
X149002210Y-89931869D01*
X148935016Y-89951021D01*
X148868135Y-89930805D01*
X148823618Y-89879430D01*
X148774835Y-89774814D01*
X148762037Y-89756537D01*
X148646822Y-89591993D01*
X148489007Y-89434178D01*
X148306186Y-89306165D01*
X148103913Y-89211844D01*
X148103909Y-89211843D01*
X148103905Y-89211841D01*
X147888339Y-89154081D01*
X147888329Y-89154079D01*
X147666001Y-89134628D01*
X147665999Y-89134628D01*
X147443670Y-89154079D01*
X147443660Y-89154081D01*
X147228094Y-89211841D01*
X147228087Y-89211843D01*
X147228087Y-89211844D01*
X147025814Y-89306165D01*
X146842993Y-89434178D01*
X146842991Y-89434179D01*
X146842988Y-89434182D01*
X146685182Y-89591988D01*
X146685179Y-89591991D01*
X146685178Y-89591993D01*
X146557165Y-89774814D01*
X146465903Y-89970528D01*
X146462845Y-89977085D01*
X146462841Y-89977094D01*
X146405081Y-90192660D01*
X146405079Y-90192670D01*
X146385628Y-90414999D01*
X130488649Y-90414999D01*
X130562981Y-90347236D01*
X130697058Y-90169689D01*
X130796229Y-89970528D01*
X130857115Y-89756536D01*
X130877643Y-89535000D01*
X130857115Y-89313464D01*
X130796229Y-89099472D01*
X130785157Y-89077236D01*
X130697061Y-88900316D01*
X130697056Y-88900308D01*
X130562979Y-88722761D01*
X130398562Y-88572876D01*
X130398560Y-88572874D01*
X130209404Y-88455754D01*
X130209395Y-88455750D01*
X130115956Y-88419552D01*
X130015475Y-88380625D01*
X129960075Y-88338054D01*
X129936484Y-88272288D01*
X129952195Y-88204207D01*
X130002219Y-88155428D01*
X130015466Y-88149377D01*
X130209401Y-88074247D01*
X130398562Y-87957124D01*
X130562981Y-87807236D01*
X130697058Y-87629689D01*
X130796229Y-87430528D01*
X130857115Y-87216536D01*
X130877643Y-86995000D01*
X130857115Y-86773464D01*
X130796229Y-86559472D01*
X130782790Y-86532483D01*
X130697061Y-86360316D01*
X130697056Y-86360308D01*
X130562979Y-86182761D01*
X130398562Y-86032876D01*
X130398560Y-86032874D01*
X130209404Y-85915754D01*
X130209398Y-85915752D01*
X130001940Y-85835382D01*
X129783243Y-85794500D01*
X129560757Y-85794500D01*
X129342060Y-85835382D01*
X129210864Y-85886207D01*
X129134601Y-85915752D01*
X129134595Y-85915754D01*
X128945439Y-86032874D01*
X128945437Y-86032876D01*
X128781020Y-86182761D01*
X128646943Y-86360308D01*
X128646938Y-86360316D01*
X128567499Y-86519850D01*
X128519995Y-86571087D01*
X128452332Y-86588508D01*
X128385992Y-86566582D01*
X128342037Y-86512270D01*
X128332499Y-86464582D01*
X128332499Y-85724999D01*
X171636357Y-85724999D01*
X171636357Y-85725000D01*
X171656884Y-85946535D01*
X171656885Y-85946537D01*
X171717769Y-86160523D01*
X171717775Y-86160538D01*
X171816938Y-86359683D01*
X171816943Y-86359691D01*
X171951020Y-86537238D01*
X172115437Y-86687123D01*
X172115439Y-86687125D01*
X172304595Y-86804245D01*
X172304596Y-86804245D01*
X172304599Y-86804247D01*
X172498524Y-86879374D01*
X172553924Y-86921946D01*
X172577515Y-86987713D01*
X172561804Y-87055793D01*
X172511780Y-87104572D01*
X172498533Y-87110622D01*
X172357846Y-87165125D01*
X172304601Y-87185752D01*
X172304595Y-87185754D01*
X172115439Y-87302874D01*
X172115437Y-87302876D01*
X171951020Y-87452761D01*
X171816943Y-87630308D01*
X171816938Y-87630316D01*
X171717775Y-87829461D01*
X171717769Y-87829476D01*
X171656885Y-88043462D01*
X171656884Y-88043464D01*
X171636357Y-88264999D01*
X171636357Y-88265000D01*
X171656884Y-88486535D01*
X171656885Y-88486537D01*
X171717769Y-88700523D01*
X171717775Y-88700538D01*
X171816938Y-88899683D01*
X171816943Y-88899691D01*
X171951020Y-89077238D01*
X172115437Y-89227123D01*
X172115439Y-89227125D01*
X172304595Y-89344245D01*
X172304596Y-89344245D01*
X172304599Y-89344247D01*
X172498524Y-89419374D01*
X172553924Y-89461946D01*
X172577515Y-89527713D01*
X172561804Y-89595793D01*
X172511780Y-89644572D01*
X172498533Y-89650622D01*
X172351775Y-89707477D01*
X172304601Y-89725752D01*
X172304595Y-89725754D01*
X172115439Y-89842874D01*
X172115437Y-89842876D01*
X171951020Y-89992761D01*
X171816943Y-90170308D01*
X171816938Y-90170316D01*
X171717775Y-90369461D01*
X171717769Y-90369476D01*
X171656885Y-90583462D01*
X171656884Y-90583464D01*
X171636357Y-90804999D01*
X171636357Y-90805000D01*
X171656884Y-91026535D01*
X171656885Y-91026537D01*
X171717769Y-91240523D01*
X171717775Y-91240538D01*
X171816938Y-91439683D01*
X171816943Y-91439691D01*
X171951020Y-91617238D01*
X172115437Y-91767123D01*
X172115439Y-91767125D01*
X172304595Y-91884245D01*
X172304596Y-91884245D01*
X172304599Y-91884247D01*
X172498524Y-91959374D01*
X172553924Y-92001946D01*
X172577515Y-92067713D01*
X172561804Y-92135793D01*
X172511780Y-92184572D01*
X172498533Y-92190622D01*
X172350488Y-92247975D01*
X172304601Y-92265752D01*
X172304595Y-92265754D01*
X172115439Y-92382874D01*
X172115437Y-92382876D01*
X171951020Y-92532761D01*
X171816943Y-92710308D01*
X171816938Y-92710316D01*
X171717775Y-92909461D01*
X171717769Y-92909476D01*
X171656885Y-93123462D01*
X171656884Y-93123464D01*
X171636357Y-93344999D01*
X171636357Y-93345000D01*
X171656884Y-93566535D01*
X171656885Y-93566537D01*
X171717769Y-93780523D01*
X171717775Y-93780538D01*
X171816938Y-93979683D01*
X171816943Y-93979691D01*
X171951020Y-94157238D01*
X172115437Y-94307123D01*
X172115439Y-94307125D01*
X172304595Y-94424245D01*
X172304596Y-94424245D01*
X172304599Y-94424247D01*
X172512060Y-94504618D01*
X172730757Y-94545500D01*
X172730759Y-94545500D01*
X172953241Y-94545500D01*
X172953243Y-94545500D01*
X173171940Y-94504618D01*
X173379401Y-94424247D01*
X173568562Y-94307124D01*
X173732981Y-94157236D01*
X173867058Y-93979689D01*
X173946500Y-93820149D01*
X173994003Y-93768912D01*
X174061666Y-93751491D01*
X174128006Y-93773417D01*
X174171961Y-93827728D01*
X174181500Y-93875421D01*
X174181500Y-95362870D01*
X174181501Y-95362876D01*
X174187908Y-95422483D01*
X174238202Y-95557328D01*
X174238206Y-95557335D01*
X174324452Y-95672544D01*
X174324455Y-95672547D01*
X174439664Y-95758793D01*
X174439671Y-95758797D01*
X174574517Y-95809091D01*
X174574516Y-95809091D01*
X174581444Y-95809835D01*
X174634127Y-95815500D01*
X176129872Y-95815499D01*
X176189483Y-95809091D01*
X176311153Y-95763711D01*
X179881500Y-95763711D01*
X179881500Y-96006288D01*
X179913161Y-96246785D01*
X179975947Y-96481104D01*
X180068773Y-96705205D01*
X180068776Y-96705212D01*
X180190064Y-96915289D01*
X180190066Y-96915292D01*
X180190067Y-96915293D01*
X180337733Y-97107736D01*
X180337739Y-97107743D01*
X180509256Y-97279260D01*
X180509262Y-97279265D01*
X180701711Y-97426936D01*
X180911788Y-97548224D01*
X181135900Y-97641054D01*
X181370211Y-97703838D01*
X181550586Y-97727584D01*
X181610711Y-97735500D01*
X181610712Y-97735500D01*
X181853289Y-97735500D01*
X181901388Y-97729167D01*
X182093789Y-97703838D01*
X182328100Y-97641054D01*
X182552212Y-97548224D01*
X182762289Y-97426936D01*
X182954738Y-97279265D01*
X183126265Y-97107738D01*
X183273936Y-96915289D01*
X183395224Y-96705212D01*
X183488054Y-96481100D01*
X183550838Y-96246789D01*
X183582500Y-96006288D01*
X183582500Y-95763712D01*
X183581852Y-95758793D01*
X183557936Y-95577125D01*
X183550838Y-95523211D01*
X183488054Y-95288900D01*
X183395224Y-95064788D01*
X183273936Y-94854711D01*
X183126265Y-94662262D01*
X183126260Y-94662256D01*
X182954743Y-94490739D01*
X182954736Y-94490733D01*
X182762293Y-94343067D01*
X182762292Y-94343066D01*
X182762289Y-94343064D01*
X182552212Y-94221776D01*
X182450091Y-94179476D01*
X182328104Y-94128947D01*
X182093785Y-94066161D01*
X181853289Y-94034500D01*
X181853288Y-94034500D01*
X181610712Y-94034500D01*
X181610711Y-94034500D01*
X181370214Y-94066161D01*
X181135895Y-94128947D01*
X180911794Y-94221773D01*
X180911785Y-94221777D01*
X180701706Y-94343067D01*
X180509263Y-94490733D01*
X180509256Y-94490739D01*
X180337739Y-94662256D01*
X180337733Y-94662263D01*
X180190067Y-94854706D01*
X180068777Y-95064785D01*
X180068773Y-95064794D01*
X179975947Y-95288895D01*
X179913161Y-95523214D01*
X179881500Y-95763711D01*
X176311153Y-95763711D01*
X176324331Y-95758796D01*
X176439546Y-95672546D01*
X176525796Y-95557331D01*
X176576091Y-95422483D01*
X176582500Y-95362873D01*
X176582499Y-93867128D01*
X176576091Y-93807517D01*
X176574318Y-93802764D01*
X176525797Y-93672671D01*
X176525793Y-93672664D01*
X176439547Y-93557455D01*
X176439544Y-93557452D01*
X176324335Y-93471206D01*
X176324328Y-93471202D01*
X176189482Y-93420908D01*
X176189483Y-93420908D01*
X176129883Y-93414501D01*
X176129881Y-93414500D01*
X176129873Y-93414500D01*
X176129865Y-93414500D01*
X175909570Y-93414500D01*
X175842531Y-93394815D01*
X175796776Y-93342011D01*
X175786832Y-93272853D01*
X175815857Y-93209297D01*
X175864777Y-93174873D01*
X175919174Y-93153799D01*
X175919178Y-93153797D01*
X176035327Y-93081880D01*
X175470585Y-92517138D01*
X175555694Y-92494333D01*
X175658306Y-92435090D01*
X175742090Y-92351306D01*
X175801333Y-92248694D01*
X175824138Y-92163584D01*
X176390860Y-92730306D01*
X176390861Y-92730306D01*
X176406631Y-92709425D01*
X176406632Y-92709422D01*
X176505759Y-92510350D01*
X176566621Y-92296439D01*
X176587141Y-92075000D01*
X176587141Y-92074999D01*
X176566621Y-91853560D01*
X176505759Y-91639649D01*
X176406633Y-91440577D01*
X176406631Y-91440574D01*
X176390860Y-91419691D01*
X175824137Y-91986414D01*
X175801333Y-91901306D01*
X175742090Y-91798694D01*
X175658306Y-91714910D01*
X175555694Y-91655667D01*
X175470584Y-91632861D01*
X176035327Y-91068118D01*
X176035326Y-91068117D01*
X175919181Y-90996203D01*
X175919175Y-90996200D01*
X175724096Y-90920627D01*
X175668695Y-90878054D01*
X175645104Y-90812287D01*
X175660815Y-90744207D01*
X175710839Y-90695428D01*
X175724096Y-90689373D01*
X175919177Y-90613798D01*
X175919178Y-90613797D01*
X176035327Y-90541880D01*
X175470585Y-89977138D01*
X175555694Y-89954333D01*
X175658306Y-89895090D01*
X175742090Y-89811306D01*
X175801333Y-89708694D01*
X175824138Y-89623584D01*
X176390860Y-90190306D01*
X176390861Y-90190306D01*
X176406631Y-90169425D01*
X176406632Y-90169422D01*
X176466739Y-90048711D01*
X191951500Y-90048711D01*
X191951500Y-90291288D01*
X191983161Y-90531785D01*
X192045947Y-90766104D01*
X192138773Y-90990205D01*
X192138777Y-90990214D01*
X192141975Y-90995753D01*
X192260064Y-91200289D01*
X192260066Y-91200292D01*
X192260067Y-91200293D01*
X192407733Y-91392736D01*
X192407739Y-91392743D01*
X192579256Y-91564260D01*
X192579263Y-91564266D01*
X192677260Y-91639461D01*
X192771711Y-91711936D01*
X192981788Y-91833224D01*
X193205900Y-91926054D01*
X193440211Y-91988838D01*
X193620586Y-92012584D01*
X193680711Y-92020500D01*
X193680712Y-92020500D01*
X193923289Y-92020500D01*
X193971388Y-92014167D01*
X194163789Y-91988838D01*
X194398100Y-91926054D01*
X194622212Y-91833224D01*
X194832289Y-91711936D01*
X195024738Y-91564265D01*
X195196265Y-91392738D01*
X195343936Y-91200289D01*
X195465224Y-90990212D01*
X195558054Y-90766100D01*
X195620838Y-90531789D01*
X195652500Y-90291288D01*
X195652500Y-90048712D01*
X195620838Y-89808211D01*
X195558054Y-89573900D01*
X195465224Y-89349788D01*
X195343936Y-89139711D01*
X195196265Y-88947262D01*
X195196260Y-88947256D01*
X195024743Y-88775739D01*
X195024736Y-88775733D01*
X194832293Y-88628067D01*
X194832292Y-88628066D01*
X194832289Y-88628064D01*
X194622212Y-88506776D01*
X194573351Y-88486537D01*
X194398104Y-88413947D01*
X194254178Y-88375382D01*
X194163789Y-88351162D01*
X194163788Y-88351161D01*
X194163785Y-88351161D01*
X193923289Y-88319500D01*
X193923288Y-88319500D01*
X193680712Y-88319500D01*
X193680711Y-88319500D01*
X193440214Y-88351161D01*
X193205895Y-88413947D01*
X192981794Y-88506773D01*
X192981785Y-88506777D01*
X192771706Y-88628067D01*
X192579263Y-88775733D01*
X192579256Y-88775739D01*
X192407739Y-88947256D01*
X192407733Y-88947263D01*
X192260067Y-89139706D01*
X192260064Y-89139710D01*
X192260064Y-89139711D01*
X192251483Y-89154573D01*
X192138777Y-89349785D01*
X192138773Y-89349794D01*
X192045947Y-89573895D01*
X191983161Y-89808214D01*
X191951500Y-90048711D01*
X176466739Y-90048711D01*
X176505759Y-89970350D01*
X176566621Y-89756439D01*
X176587141Y-89535000D01*
X176587141Y-89534999D01*
X176566621Y-89313560D01*
X176505759Y-89099649D01*
X176406633Y-88900577D01*
X176406631Y-88900574D01*
X176390860Y-88879691D01*
X175824137Y-89446414D01*
X175801333Y-89361306D01*
X175742090Y-89258694D01*
X175658306Y-89174910D01*
X175555694Y-89115667D01*
X175470584Y-89092861D01*
X176035327Y-88528118D01*
X176035326Y-88528117D01*
X175919181Y-88456203D01*
X175919175Y-88456200D01*
X175724096Y-88380627D01*
X175668695Y-88338054D01*
X175645104Y-88272287D01*
X175660815Y-88204207D01*
X175710839Y-88155428D01*
X175724096Y-88149373D01*
X175919177Y-88073798D01*
X175919178Y-88073797D01*
X176035327Y-88001880D01*
X175470585Y-87437138D01*
X175555694Y-87414333D01*
X175658306Y-87355090D01*
X175742090Y-87271306D01*
X175801333Y-87168694D01*
X175824138Y-87083584D01*
X176390860Y-87650306D01*
X176390861Y-87650306D01*
X176406631Y-87629425D01*
X176406632Y-87629422D01*
X176505759Y-87430350D01*
X176566621Y-87216439D01*
X176587141Y-86995000D01*
X176587141Y-86994999D01*
X176566621Y-86773560D01*
X176505759Y-86559649D01*
X176406633Y-86360577D01*
X176406631Y-86360574D01*
X176390860Y-86339691D01*
X175824137Y-86906414D01*
X175801333Y-86821306D01*
X175742090Y-86718694D01*
X175658306Y-86634910D01*
X175555694Y-86575667D01*
X175470584Y-86552861D01*
X176035327Y-85988118D01*
X176035326Y-85988117D01*
X175919181Y-85916203D01*
X175919175Y-85916200D01*
X175711804Y-85835865D01*
X175493193Y-85795000D01*
X175270807Y-85795000D01*
X175052195Y-85835865D01*
X174844824Y-85916200D01*
X174844818Y-85916204D01*
X174728672Y-85988117D01*
X174728671Y-85988118D01*
X175293415Y-86552861D01*
X175208306Y-86575667D01*
X175105694Y-86634910D01*
X175021910Y-86718694D01*
X174962667Y-86821306D01*
X174939861Y-86906414D01*
X174373138Y-86339691D01*
X174373137Y-86339691D01*
X174357369Y-86360571D01*
X174258240Y-86559649D01*
X174197378Y-86773560D01*
X174176859Y-86994999D01*
X174176859Y-86995000D01*
X174197378Y-87216439D01*
X174258240Y-87430350D01*
X174357364Y-87629419D01*
X174357366Y-87629421D01*
X174373138Y-87650306D01*
X174939861Y-87083584D01*
X174962667Y-87168694D01*
X175021910Y-87271306D01*
X175105694Y-87355090D01*
X175208306Y-87414333D01*
X175293415Y-87437138D01*
X174728671Y-88001880D01*
X174844823Y-88073798D01*
X174844824Y-88073799D01*
X175039903Y-88149373D01*
X175095305Y-88191946D01*
X175118895Y-88257713D01*
X175103184Y-88325793D01*
X175053160Y-88374572D01*
X175039903Y-88380627D01*
X174844824Y-88456200D01*
X174844818Y-88456204D01*
X174728672Y-88528117D01*
X174728671Y-88528118D01*
X175293415Y-89092861D01*
X175208306Y-89115667D01*
X175105694Y-89174910D01*
X175021910Y-89258694D01*
X174962667Y-89361306D01*
X174939861Y-89446414D01*
X174373138Y-88879691D01*
X174373137Y-88879691D01*
X174357369Y-88900571D01*
X174258240Y-89099649D01*
X174197378Y-89313560D01*
X174176859Y-89534999D01*
X174176859Y-89535000D01*
X174197378Y-89756439D01*
X174258240Y-89970350D01*
X174357364Y-90169419D01*
X174357366Y-90169421D01*
X174373138Y-90190306D01*
X174939861Y-89623584D01*
X174962667Y-89708694D01*
X175021910Y-89811306D01*
X175105694Y-89895090D01*
X175208306Y-89954333D01*
X175293415Y-89977138D01*
X174728671Y-90541880D01*
X174844823Y-90613798D01*
X174844824Y-90613799D01*
X175039903Y-90689373D01*
X175095305Y-90731946D01*
X175118895Y-90797713D01*
X175103184Y-90865793D01*
X175053160Y-90914572D01*
X175039903Y-90920627D01*
X174844824Y-90996200D01*
X174844818Y-90996204D01*
X174728672Y-91068117D01*
X174728671Y-91068118D01*
X175293415Y-91632861D01*
X175208306Y-91655667D01*
X175105694Y-91714910D01*
X175021910Y-91798694D01*
X174962667Y-91901306D01*
X174939861Y-91986414D01*
X174373138Y-91419691D01*
X174373137Y-91419691D01*
X174357369Y-91440571D01*
X174258240Y-91639649D01*
X174197378Y-91853560D01*
X174176859Y-92074999D01*
X174176859Y-92075000D01*
X174197378Y-92296439D01*
X174258240Y-92510350D01*
X174357364Y-92709419D01*
X174357366Y-92709421D01*
X174373138Y-92730306D01*
X174939861Y-92163584D01*
X174962667Y-92248694D01*
X175021910Y-92351306D01*
X175105694Y-92435090D01*
X175208306Y-92494333D01*
X175293415Y-92517138D01*
X174728671Y-93081880D01*
X174844823Y-93153798D01*
X174844827Y-93153800D01*
X174899223Y-93174873D01*
X174954625Y-93217445D01*
X174978216Y-93283212D01*
X174962505Y-93351293D01*
X174912482Y-93400072D01*
X174854431Y-93414500D01*
X174634130Y-93414500D01*
X174634123Y-93414501D01*
X174574516Y-93420908D01*
X174439671Y-93471202D01*
X174439664Y-93471206D01*
X174324455Y-93557452D01*
X174249342Y-93657790D01*
X174193408Y-93699660D01*
X174123717Y-93704644D01*
X174062394Y-93671158D01*
X174028909Y-93609835D01*
X174026605Y-93572037D01*
X174027957Y-93557454D01*
X174047643Y-93345000D01*
X174035823Y-93217445D01*
X174027115Y-93123464D01*
X174027114Y-93123462D01*
X174011531Y-93068694D01*
X173966229Y-92909472D01*
X173955157Y-92887236D01*
X173867061Y-92710316D01*
X173867056Y-92710308D01*
X173732979Y-92532761D01*
X173568562Y-92382876D01*
X173568560Y-92382874D01*
X173379404Y-92265754D01*
X173379395Y-92265750D01*
X173285956Y-92229552D01*
X173185475Y-92190625D01*
X173130075Y-92148054D01*
X173106484Y-92082288D01*
X173122195Y-92014207D01*
X173172219Y-91965428D01*
X173185466Y-91959377D01*
X173379401Y-91884247D01*
X173568562Y-91767124D01*
X173731974Y-91618154D01*
X173732979Y-91617238D01*
X173750934Y-91593463D01*
X173867058Y-91439689D01*
X173966229Y-91240528D01*
X174027115Y-91026536D01*
X174047643Y-90805000D01*
X174044038Y-90766100D01*
X174027115Y-90583464D01*
X174027114Y-90583462D01*
X174011531Y-90528694D01*
X173966229Y-90369472D01*
X173878187Y-90192660D01*
X173867061Y-90170316D01*
X173867056Y-90170308D01*
X173732979Y-89992761D01*
X173568562Y-89842876D01*
X173568560Y-89842874D01*
X173379404Y-89725754D01*
X173379395Y-89725750D01*
X173276893Y-89686041D01*
X173185475Y-89650625D01*
X173130075Y-89608054D01*
X173106484Y-89542288D01*
X173122195Y-89474207D01*
X173172219Y-89425428D01*
X173185466Y-89419377D01*
X173379401Y-89344247D01*
X173568562Y-89227124D01*
X173732981Y-89077236D01*
X173867058Y-88899689D01*
X173966229Y-88700528D01*
X174027115Y-88486536D01*
X174047643Y-88265000D01*
X174027115Y-88043464D01*
X173966229Y-87829472D01*
X173955157Y-87807236D01*
X173867061Y-87630316D01*
X173867056Y-87630308D01*
X173732979Y-87452761D01*
X173568562Y-87302876D01*
X173568560Y-87302874D01*
X173379404Y-87185754D01*
X173379395Y-87185750D01*
X173285956Y-87149552D01*
X173185475Y-87110625D01*
X173130075Y-87068054D01*
X173106484Y-87002288D01*
X173122195Y-86934207D01*
X173172219Y-86885428D01*
X173185466Y-86879377D01*
X173379401Y-86804247D01*
X173568562Y-86687124D01*
X173732981Y-86537236D01*
X173867058Y-86359689D01*
X173966229Y-86160528D01*
X174027115Y-85946536D01*
X174047643Y-85725000D01*
X174027115Y-85503464D01*
X173966229Y-85289472D01*
X173966224Y-85289461D01*
X173867061Y-85090316D01*
X173867056Y-85090308D01*
X173732979Y-84912761D01*
X173568562Y-84762876D01*
X173568560Y-84762874D01*
X173379404Y-84645754D01*
X173379398Y-84645752D01*
X173171940Y-84565382D01*
X172953243Y-84524500D01*
X172730757Y-84524500D01*
X172512060Y-84565382D01*
X172471219Y-84581204D01*
X172304601Y-84645752D01*
X172304595Y-84645754D01*
X172115439Y-84762874D01*
X172115437Y-84762876D01*
X171951020Y-84912761D01*
X171816943Y-85090308D01*
X171816938Y-85090316D01*
X171717775Y-85289461D01*
X171717769Y-85289476D01*
X171656885Y-85503462D01*
X171656884Y-85503464D01*
X171636357Y-85724999D01*
X128332499Y-85724999D01*
X128332499Y-84977128D01*
X128326091Y-84917517D01*
X128324318Y-84912764D01*
X128275797Y-84782671D01*
X128275793Y-84782664D01*
X128189547Y-84667455D01*
X128189544Y-84667452D01*
X128074335Y-84581206D01*
X128074328Y-84581202D01*
X127939482Y-84530908D01*
X127939483Y-84530908D01*
X127879883Y-84524501D01*
X127879881Y-84524500D01*
X127879873Y-84524500D01*
X127879864Y-84524500D01*
X126384129Y-84524500D01*
X126384123Y-84524501D01*
X126324516Y-84530908D01*
X126189671Y-84581202D01*
X126189664Y-84581206D01*
X126074455Y-84667452D01*
X126074452Y-84667455D01*
X125988206Y-84782664D01*
X125988202Y-84782671D01*
X125937908Y-84917517D01*
X125931501Y-84977116D01*
X125931501Y-84977123D01*
X125931500Y-84977135D01*
X125931500Y-86472870D01*
X125931501Y-86472876D01*
X125937908Y-86532483D01*
X125988202Y-86667328D01*
X125988206Y-86667335D01*
X126074452Y-86782544D01*
X126074455Y-86782547D01*
X126189664Y-86868793D01*
X126189671Y-86868797D01*
X126324517Y-86919091D01*
X126324516Y-86919091D01*
X126331444Y-86919835D01*
X126384127Y-86925500D01*
X126604430Y-86925499D01*
X126671468Y-86945183D01*
X126717223Y-86997987D01*
X126727167Y-87067145D01*
X126698142Y-87130701D01*
X126649224Y-87165125D01*
X126594830Y-87186197D01*
X126594818Y-87186204D01*
X126478672Y-87258117D01*
X126478671Y-87258118D01*
X127043415Y-87822861D01*
X126958306Y-87845667D01*
X126855694Y-87904910D01*
X126771910Y-87988694D01*
X126712667Y-88091306D01*
X126689861Y-88176414D01*
X126123138Y-87609691D01*
X126123137Y-87609691D01*
X126107369Y-87630571D01*
X126008240Y-87829649D01*
X125947378Y-88043560D01*
X125926859Y-88264999D01*
X99814500Y-88264999D01*
X99814500Y-84333711D01*
X118931500Y-84333711D01*
X118931500Y-84576288D01*
X118963161Y-84816785D01*
X119025947Y-85051104D01*
X119118773Y-85275205D01*
X119118776Y-85275212D01*
X119240064Y-85485289D01*
X119240066Y-85485292D01*
X119240067Y-85485293D01*
X119387733Y-85677736D01*
X119387739Y-85677743D01*
X119559256Y-85849260D01*
X119559262Y-85849265D01*
X119751711Y-85996936D01*
X119961788Y-86118224D01*
X120185900Y-86211054D01*
X120420211Y-86273838D01*
X120600586Y-86297584D01*
X120660711Y-86305500D01*
X120660712Y-86305500D01*
X120903289Y-86305500D01*
X120951388Y-86299167D01*
X121143789Y-86273838D01*
X121378100Y-86211054D01*
X121602212Y-86118224D01*
X121812289Y-85996936D01*
X122004738Y-85849265D01*
X122176265Y-85677738D01*
X122323936Y-85485289D01*
X122445224Y-85275212D01*
X122538054Y-85051100D01*
X122600838Y-84816789D01*
X122632500Y-84576288D01*
X122632500Y-84333712D01*
X122632500Y-84333711D01*
X179881500Y-84333711D01*
X179881500Y-84576288D01*
X179913161Y-84816785D01*
X179975947Y-85051104D01*
X180068773Y-85275205D01*
X180068776Y-85275212D01*
X180190064Y-85485289D01*
X180190066Y-85485292D01*
X180190067Y-85485293D01*
X180337733Y-85677736D01*
X180337739Y-85677743D01*
X180509256Y-85849260D01*
X180509262Y-85849265D01*
X180701711Y-85996936D01*
X180911788Y-86118224D01*
X181135900Y-86211054D01*
X181370211Y-86273838D01*
X181550586Y-86297584D01*
X181610711Y-86305500D01*
X181610712Y-86305500D01*
X181853289Y-86305500D01*
X181901388Y-86299167D01*
X182093789Y-86273838D01*
X182328100Y-86211054D01*
X182552212Y-86118224D01*
X182762289Y-85996936D01*
X182954738Y-85849265D01*
X183126265Y-85677738D01*
X183273936Y-85485289D01*
X183395224Y-85275212D01*
X183488054Y-85051100D01*
X183550838Y-84816789D01*
X183582500Y-84576288D01*
X183582500Y-84333712D01*
X183550838Y-84093211D01*
X183488054Y-83858900D01*
X183395224Y-83634788D01*
X183273936Y-83424711D01*
X183126265Y-83232262D01*
X183126260Y-83232256D01*
X182954743Y-83060739D01*
X182954736Y-83060733D01*
X182762293Y-82913067D01*
X182762292Y-82913066D01*
X182762289Y-82913064D01*
X182552212Y-82791776D01*
X182552205Y-82791773D01*
X182328104Y-82698947D01*
X182093785Y-82636161D01*
X181853289Y-82604500D01*
X181853288Y-82604500D01*
X181610712Y-82604500D01*
X181610711Y-82604500D01*
X181370214Y-82636161D01*
X181135895Y-82698947D01*
X180911794Y-82791773D01*
X180911785Y-82791777D01*
X180701706Y-82913067D01*
X180509263Y-83060733D01*
X180509256Y-83060739D01*
X180337739Y-83232256D01*
X180337733Y-83232263D01*
X180190067Y-83424706D01*
X180068777Y-83634785D01*
X180068773Y-83634794D01*
X179975947Y-83858895D01*
X179913161Y-84093214D01*
X179881500Y-84333711D01*
X122632500Y-84333711D01*
X122600838Y-84093211D01*
X122538054Y-83858900D01*
X122445224Y-83634788D01*
X122323936Y-83424711D01*
X122176265Y-83232262D01*
X122176260Y-83232256D01*
X122004743Y-83060739D01*
X122004736Y-83060733D01*
X121812293Y-82913067D01*
X121812292Y-82913066D01*
X121812289Y-82913064D01*
X121602212Y-82791776D01*
X121602205Y-82791773D01*
X121378104Y-82698947D01*
X121143785Y-82636161D01*
X120903289Y-82604500D01*
X120903288Y-82604500D01*
X120660712Y-82604500D01*
X120660711Y-82604500D01*
X120420214Y-82636161D01*
X120185895Y-82698947D01*
X119961794Y-82791773D01*
X119961785Y-82791777D01*
X119751706Y-82913067D01*
X119559263Y-83060733D01*
X119559256Y-83060739D01*
X119387739Y-83232256D01*
X119387733Y-83232263D01*
X119240067Y-83424706D01*
X119118777Y-83634785D01*
X119118773Y-83634794D01*
X119025947Y-83858895D01*
X118963161Y-84093214D01*
X118931500Y-84333711D01*
X99814500Y-84333711D01*
X99814500Y-79364500D01*
X99834185Y-79297461D01*
X99886989Y-79251706D01*
X99938500Y-79240500D01*
X202575500Y-79240500D01*
X202642539Y-79260185D01*
G37*
%TD.AperFunction*%
%TD*%
M02*
