%TF.GenerationSoftware,KiCad,Pcbnew,8.0.8*%
%TF.CreationDate,2025-03-10T16:10:23+01:00*%
%TF.ProjectId,DIYFAN _interface_V1,44495946-414e-4205-9f69-6e7465726661,rev?*%
%TF.SameCoordinates,Original*%
%TF.FileFunction,Legend,Bot*%
%TF.FilePolarity,Positive*%
%FSLAX46Y46*%
G04 Gerber Fmt 4.6, Leading zero omitted, Abs format (unit mm)*
G04 Created by KiCad (PCBNEW 8.0.8) date 2025-03-10 16:10:23*
%MOMM*%
%LPD*%
G01*
G04 APERTURE LIST*
%ADD10C,0.254000*%
G04 APERTURE END LIST*
D10*
X179136318Y-89746667D02*
X180043461Y-89746667D01*
X180043461Y-89746667D02*
X180224889Y-89686190D01*
X180224889Y-89686190D02*
X180345842Y-89565238D01*
X180345842Y-89565238D02*
X180406318Y-89383809D01*
X180406318Y-89383809D02*
X180406318Y-89262857D01*
X179257270Y-90290952D02*
X179196794Y-90351428D01*
X179196794Y-90351428D02*
X179136318Y-90472381D01*
X179136318Y-90472381D02*
X179136318Y-90774762D01*
X179136318Y-90774762D02*
X179196794Y-90895714D01*
X179196794Y-90895714D02*
X179257270Y-90956190D01*
X179257270Y-90956190D02*
X179378222Y-91016667D01*
X179378222Y-91016667D02*
X179499175Y-91016667D01*
X179499175Y-91016667D02*
X179680603Y-90956190D01*
X179680603Y-90956190D02*
X180406318Y-90230476D01*
X180406318Y-90230476D02*
X180406318Y-91016667D01*
X121986318Y-89746667D02*
X122893461Y-89746667D01*
X122893461Y-89746667D02*
X123074889Y-89686190D01*
X123074889Y-89686190D02*
X123195842Y-89565238D01*
X123195842Y-89565238D02*
X123256318Y-89383809D01*
X123256318Y-89383809D02*
X123256318Y-89262857D01*
X123256318Y-91016667D02*
X123256318Y-90290952D01*
X123256318Y-90653809D02*
X121986318Y-90653809D01*
X121986318Y-90653809D02*
X122167746Y-90532857D01*
X122167746Y-90532857D02*
X122288699Y-90411905D01*
X122288699Y-90411905D02*
X122349175Y-90290952D01*
X159173332Y-89728318D02*
X159173332Y-90635461D01*
X159173332Y-90635461D02*
X159233809Y-90816889D01*
X159233809Y-90816889D02*
X159354761Y-90937842D01*
X159354761Y-90937842D02*
X159536190Y-90998318D01*
X159536190Y-90998318D02*
X159657142Y-90998318D01*
X158689523Y-89728318D02*
X157903332Y-89728318D01*
X157903332Y-89728318D02*
X158326666Y-90212127D01*
X158326666Y-90212127D02*
X158145237Y-90212127D01*
X158145237Y-90212127D02*
X158024285Y-90272603D01*
X158024285Y-90272603D02*
X157963809Y-90333080D01*
X157963809Y-90333080D02*
X157903332Y-90454032D01*
X157903332Y-90454032D02*
X157903332Y-90756413D01*
X157903332Y-90756413D02*
X157963809Y-90877365D01*
X157963809Y-90877365D02*
X158024285Y-90937842D01*
X158024285Y-90937842D02*
X158145237Y-90998318D01*
X158145237Y-90998318D02*
X158508094Y-90998318D01*
X158508094Y-90998318D02*
X158629047Y-90937842D01*
X158629047Y-90937842D02*
X158689523Y-90877365D01*
M02*
