%TF.GenerationSoftware,KiCad,Pcbnew,8.0.8*%
%TF.CreationDate,2025-06-01T20:52:10+02:00*%
%TF.ProjectId,DIYFAN_V1,44495946-414e-45f5-9631-2e6b69636164,rev?*%
%TF.SameCoordinates,Original*%
%TF.FileFunction,Soldermask,Bot*%
%TF.FilePolarity,Negative*%
%FSLAX46Y46*%
G04 Gerber Fmt 4.6, Leading zero omitted, Abs format (unit mm)*
G04 Created by KiCad (PCBNEW 8.0.8) date 2025-06-01 20:52:10*
%MOMM*%
%LPD*%
G01*
G04 APERTURE LIST*
%ADD10C,1.850000*%
%ADD11C,2.010000*%
%ADD12C,3.200000*%
%ADD13R,1.400000X1.400000*%
%ADD14C,1.400000*%
%ADD15R,1.300000X1.300000*%
%ADD16C,1.300000*%
%ADD17C,1.337000*%
%ADD18R,1.530000X1.530000*%
%ADD19C,1.550000*%
%ADD20R,1.600000X1.600000*%
%ADD21O,1.600000X1.600000*%
%ADD22C,1.800000*%
%ADD23R,1.500000X0.900000*%
%ADD24C,2.000000*%
G04 APERTURE END LIST*
D10*
%TO.C,J1*%
X148334000Y-100428000D03*
X156974000Y-100428000D03*
D11*
X148334000Y-104228000D03*
X156974000Y-104228000D03*
%TD*%
D12*
%TO.C,J2*%
X104775000Y-87508000D03*
X93345000Y-87508000D03*
D13*
X103505000Y-93858000D03*
D14*
X102235000Y-96398000D03*
X100965000Y-93858000D03*
X99695000Y-96398000D03*
X98425000Y-93858000D03*
X97155000Y-96398000D03*
X95885000Y-93858000D03*
X94615000Y-96398000D03*
%TD*%
D12*
%TO.C,REF\u002A\u002A*%
X172720000Y-130302000D03*
%TD*%
%TO.C,REF\u002A\u002A*%
X86868000Y-130302000D03*
%TD*%
D15*
%TO.C,CP1*%
X111252000Y-111546000D03*
D16*
X111252000Y-114046000D03*
%TD*%
D15*
%TO.C,CP2*%
X111252000Y-104354000D03*
D16*
X111252000Y-101854000D03*
%TD*%
D17*
%TO.C,PS2*%
X137014000Y-104312000D03*
X134474000Y-104312000D03*
X126854000Y-104312000D03*
X124314000Y-104312000D03*
X121774000Y-104312000D03*
%TD*%
D16*
%TO.C,J3*%
X101220000Y-111506000D03*
D18*
X99060000Y-106426000D03*
D19*
X99060000Y-108966000D03*
X99060000Y-111506000D03*
X99060000Y-114046000D03*
%TD*%
D20*
%TO.C,A1*%
X110744000Y-74920000D03*
D21*
X113284000Y-74920000D03*
X115824000Y-74920000D03*
X118364000Y-74920000D03*
X120904000Y-74920000D03*
X123444000Y-74920000D03*
X125984000Y-74920000D03*
X128524000Y-74920000D03*
X131064000Y-74920000D03*
X133604000Y-74920000D03*
X136144000Y-74920000D03*
X138684000Y-74920000D03*
X141224000Y-74920000D03*
X143764000Y-74920000D03*
X146304000Y-74920000D03*
X146304000Y-59680000D03*
X143764000Y-59680000D03*
X141224000Y-59680000D03*
X138684000Y-59680000D03*
X136144000Y-59680000D03*
X133604000Y-59680000D03*
X131064000Y-59680000D03*
X128524000Y-59680000D03*
X125984000Y-59680000D03*
X123444000Y-59680000D03*
X120904000Y-59680000D03*
X118364000Y-59680000D03*
X115824000Y-59680000D03*
X113284000Y-59680000D03*
X110744000Y-59680000D03*
%TD*%
D22*
%TO.C,PS1*%
X139954000Y-119126000D03*
X139954000Y-124206000D03*
X119634000Y-111506000D03*
X119634000Y-121666000D03*
X119634000Y-131826000D03*
X139954000Y-131826000D03*
%TD*%
D12*
%TO.C,REF\u002A\u002A*%
X86868000Y-44450000D03*
%TD*%
%TO.C,REF\u002A\u002A*%
X172720000Y-44450000D03*
%TD*%
D23*
%TO.C,D4*%
X165634000Y-122366000D03*
X165634000Y-120966000D03*
X162534000Y-122366000D03*
X162534000Y-120966000D03*
%TD*%
%TO.C,D3*%
X165634000Y-53786000D03*
X165634000Y-52386000D03*
X162534000Y-53786000D03*
X162534000Y-52386000D03*
%TD*%
D24*
%TO.C,SW1*%
X133044000Y-85126000D03*
X126544000Y-85126000D03*
X133044000Y-89626000D03*
X126544000Y-89626000D03*
%TD*%
D23*
%TO.C,D1*%
X93954000Y-120966000D03*
X93954000Y-122366000D03*
X97054000Y-120966000D03*
X97054000Y-122366000D03*
%TD*%
%TO.C,D2*%
X93954000Y-52386000D03*
X93954000Y-53786000D03*
X97054000Y-52386000D03*
X97054000Y-53786000D03*
%TD*%
M02*
