%TF.GenerationSoftware,KiCad,Pcbnew,8.0.8*%
%TF.CreationDate,2025-06-01T20:52:10+02:00*%
%TF.ProjectId,DIYFAN_V1,44495946-414e-45f5-9631-2e6b69636164,rev?*%
%TF.SameCoordinates,Original*%
%TF.FileFunction,Legend,Bot*%
%TF.FilePolarity,Positive*%
%FSLAX46Y46*%
G04 Gerber Fmt 4.6, Leading zero omitted, Abs format (unit mm)*
G04 Created by KiCad (PCBNEW 8.0.8) date 2025-06-01 20:52:10*
%MOMM*%
%LPD*%
G01*
G04 APERTURE LIST*
%ADD10C,0.200000*%
%ADD11C,0.100000*%
%ADD12C,0.120000*%
G04 APERTURE END LIST*
D10*
%TO.C,D4*%
X165634000Y-120266000D02*
X162484000Y-120266000D01*
X165684000Y-123066000D02*
X162534000Y-123066000D01*
D11*
X166784000Y-122366000D02*
X166784000Y-122366000D01*
X166884000Y-122366000D02*
X166884000Y-122366000D01*
X166784000Y-122366000D02*
G75*
G02*
X166884000Y-122366000I50000J0D01*
G01*
X166884000Y-122366000D02*
G75*
G02*
X166784000Y-122366000I-50000J0D01*
G01*
D10*
%TO.C,D3*%
X165634000Y-51686000D02*
X162484000Y-51686000D01*
X165684000Y-54486000D02*
X162534000Y-54486000D01*
D11*
X166784000Y-53786000D02*
X166784000Y-53786000D01*
X166884000Y-53786000D02*
X166884000Y-53786000D01*
X166784000Y-53786000D02*
G75*
G02*
X166884000Y-53786000I50000J0D01*
G01*
X166884000Y-53786000D02*
G75*
G02*
X166784000Y-53786000I-50000J0D01*
G01*
D12*
%TO.C,SW1*%
X126294000Y-86626000D02*
X126294000Y-88126000D01*
X127544000Y-90626000D02*
X132044000Y-90626000D01*
X132044000Y-84126000D02*
X127544000Y-84126000D01*
X133294000Y-88126000D02*
X133294000Y-86626000D01*
D11*
%TO.C,D1*%
X92704000Y-120966000D02*
X92704000Y-120966000D01*
X92804000Y-120966000D02*
X92804000Y-120966000D01*
D10*
X93904000Y-120266000D02*
X97054000Y-120266000D01*
X93954000Y-123066000D02*
X97104000Y-123066000D01*
D11*
X92704000Y-120966000D02*
G75*
G02*
X92804000Y-120966000I50000J0D01*
G01*
X92804000Y-120966000D02*
G75*
G02*
X92704000Y-120966000I-50000J0D01*
G01*
%TO.C,D2*%
X92704000Y-52386000D02*
X92704000Y-52386000D01*
X92804000Y-52386000D02*
X92804000Y-52386000D01*
D10*
X93904000Y-51686000D02*
X97054000Y-51686000D01*
X93954000Y-54486000D02*
X97104000Y-54486000D01*
D11*
X92704000Y-52386000D02*
G75*
G02*
X92804000Y-52386000I50000J0D01*
G01*
X92804000Y-52386000D02*
G75*
G02*
X92704000Y-52386000I-50000J0D01*
G01*
%TD*%
M02*
