M48
; DRILL file {KiCad 8.0.8} date 2025-06-01T20:52:01+0200
; FORMAT={-:-/ absolute / inch / decimal}
; #@! TF.CreationDate,2025-06-01T20:52:01+02:00
; #@! TF.GenerationSoftware,Kicad,Pcbnew,8.0.8
; #@! TF.FileFunction,Plated,1,2,PTH
FMAT,2
INCH
; #@! TA.AperFunction,Plated,PTH,ViaDrill
T1C0.0118
; #@! TA.AperFunction,Plated,PTH,ComponentDrill
T2C0.0307
; #@! TA.AperFunction,Plated,PTH,ComponentDrill
T3C0.0315
; #@! TA.AperFunction,Plated,PTH,ComponentDrill
T4C0.0354
; #@! TA.AperFunction,Plated,PTH,ComponentDrill
T5C0.0394
; #@! TA.AperFunction,Plated,PTH,ComponentDrill
T6C0.0402
; #@! TA.AperFunction,Plated,PTH,ComponentDrill
T7C0.0433
; #@! TA.AperFunction,Plated,PTH,ComponentDrill
T8C0.0472
; #@! TA.AperFunction,Plated,PTH,ComponentDrill
T9C0.0528
%
G90
G05
T1
X3.42Y-2.28
X3.55Y-3.59
X3.57Y-3.12
X3.61Y-4.49
X3.7Y-2.21
X3.7Y-4.88
X3.76Y-2.28
X3.91Y-4.79
X3.91Y-4.85
X3.92Y-2.04
X3.92Y-2.14
X4.1Y-2.2
X4.1Y-2.26
X5.68Y-2.14
X5.87Y-2.04
X5.89Y-4.0
X6.1Y-2.2
X6.1Y-2.31
X6.13Y-4.0
X6.16Y-2.07
X6.16Y-2.28
X6.29Y-2.04
X6.29Y-2.14
X6.34Y-3.2
X6.34Y-3.4
X6.34Y-3.6
X6.4Y-4.7
X6.4Y-4.88
X6.52Y-4.7
X6.53Y-1.99
X6.63Y-2.36
X6.64Y-3.64
X6.65Y-3.44
X6.74Y-3.64
X6.81Y-3.44
X6.85Y-2.46
T2
X4.7943Y-4.1068
X4.8943Y-4.1068
X4.9943Y-4.1068
X5.2943Y-4.1068
X5.3943Y-4.1068
T3
X4.38Y-4.01
X4.38Y-4.1084
X4.38Y-4.3916
X4.38Y-4.49
T4
X3.725Y-3.7952
X3.775Y-3.6952
X3.825Y-3.7952
X3.875Y-3.6952
X3.925Y-3.7952
X3.975Y-3.6952
X4.025Y-3.7952
X4.075Y-3.6952
T5
X4.36Y-2.3496
X4.36Y-2.9496
X4.46Y-2.3496
X4.46Y-2.9496
X4.56Y-2.3496
X4.56Y-2.9496
X4.66Y-2.3496
X4.66Y-2.9496
X4.76Y-2.3496
X4.76Y-2.9496
X4.86Y-2.3496
X4.86Y-2.9496
X4.96Y-2.3496
X4.96Y-2.9496
X5.06Y-2.3496
X5.06Y-2.9496
X5.16Y-2.3496
X5.16Y-2.9496
X5.26Y-2.3496
X5.26Y-2.9496
X5.36Y-2.3496
X5.36Y-2.9496
X5.46Y-2.3496
X5.46Y-2.9496
X5.56Y-2.3496
X5.56Y-2.9496
X5.66Y-2.3496
X5.66Y-2.9496
X5.76Y-2.3496
X5.76Y-2.9496
T6
X3.9Y-4.19
X3.9Y-4.29
X3.9Y-4.39
X3.9Y-4.49
T7
X4.982Y-3.3514
X4.982Y-3.5286
X5.238Y-3.3514
X5.238Y-3.5286
T8
X4.71Y-4.39
X4.71Y-4.79
X4.71Y-5.19
X5.51Y-4.69
X5.51Y-4.89
X5.51Y-5.19
T9
X5.8399Y-3.9539
X5.8399Y-4.1035
X6.1801Y-3.9539
X6.1801Y-4.1035
M30
