%TF.GenerationSoftware,KiCad,Pcbnew,8.0.8*%
%TF.CreationDate,2025-06-01T20:52:10+02:00*%
%TF.ProjectId,DIYFAN_V1,44495946-414e-45f5-9631-2e6b69636164,rev?*%
%TF.SameCoordinates,Original*%
%TF.FileFunction,Soldermask,Top*%
%TF.FilePolarity,Negative*%
%FSLAX46Y46*%
G04 Gerber Fmt 4.6, Leading zero omitted, Abs format (unit mm)*
G04 Created by KiCad (PCBNEW 8.0.8) date 2025-06-01 20:52:10*
%MOMM*%
%LPD*%
G01*
G04 APERTURE LIST*
G04 Aperture macros list*
%AMRoundRect*
0 Rectangle with rounded corners*
0 $1 Rounding radius*
0 $2 $3 $4 $5 $6 $7 $8 $9 X,Y pos of 4 corners*
0 Add a 4 corners polygon primitive as box body*
4,1,4,$2,$3,$4,$5,$6,$7,$8,$9,$2,$3,0*
0 Add four circle primitives for the rounded corners*
1,1,$1+$1,$2,$3*
1,1,$1+$1,$4,$5*
1,1,$1+$1,$6,$7*
1,1,$1+$1,$8,$9*
0 Add four rect primitives between the rounded corners*
20,1,$1+$1,$2,$3,$4,$5,0*
20,1,$1+$1,$4,$5,$6,$7,0*
20,1,$1+$1,$6,$7,$8,$9,0*
20,1,$1+$1,$8,$9,$2,$3,0*%
G04 Aperture macros list end*
%ADD10RoundRect,0.250000X-0.400000X-0.625000X0.400000X-0.625000X0.400000X0.625000X-0.400000X0.625000X0*%
%ADD11R,0.700000X2.070000*%
%ADD12R,0.760000X2.070000*%
%ADD13R,0.800000X2.070000*%
%ADD14C,1.850000*%
%ADD15C,2.010000*%
%ADD16C,3.200000*%
%ADD17R,1.400000X1.400000*%
%ADD18C,1.400000*%
%ADD19RoundRect,0.250000X0.400000X0.625000X-0.400000X0.625000X-0.400000X-0.625000X0.400000X-0.625000X0*%
%ADD20RoundRect,0.250000X0.625000X-0.400000X0.625000X0.400000X-0.625000X0.400000X-0.625000X-0.400000X0*%
%ADD21RoundRect,0.250000X-0.625000X0.400000X-0.625000X-0.400000X0.625000X-0.400000X0.625000X0.400000X0*%
%ADD22RoundRect,0.150000X-0.512500X-0.150000X0.512500X-0.150000X0.512500X0.150000X-0.512500X0.150000X0*%
%ADD23R,1.300000X1.300000*%
%ADD24C,1.300000*%
%ADD25C,1.337000*%
%ADD26R,1.530000X1.530000*%
%ADD27C,1.550000*%
%ADD28R,1.600000X1.600000*%
%ADD29O,1.600000X1.600000*%
%ADD30C,1.800000*%
%ADD31C,2.000000*%
G04 APERTURE END LIST*
D10*
%TO.C,R2*%
X90932000Y-125984000D03*
X94032000Y-125984000D03*
%TD*%
D11*
%TO.C,J1*%
X152154000Y-99913000D03*
D12*
X154174000Y-99913000D03*
D13*
X155404000Y-99913000D03*
D11*
X153154000Y-99913000D03*
D12*
X151134000Y-99913000D03*
D13*
X149904000Y-99913000D03*
D14*
X148334000Y-100428000D03*
X156974000Y-100428000D03*
D15*
X148334000Y-104228000D03*
X156974000Y-104228000D03*
%TD*%
D16*
%TO.C,J2*%
X104775000Y-87508000D03*
X93345000Y-87508000D03*
D17*
X103505000Y-93858000D03*
D18*
X102235000Y-96398000D03*
X100965000Y-93858000D03*
X99695000Y-96398000D03*
X98425000Y-93858000D03*
X97155000Y-96398000D03*
X95885000Y-93858000D03*
X94615000Y-96398000D03*
%TD*%
D19*
%TO.C,R8*%
X104166000Y-51816000D03*
X101066000Y-51816000D03*
%TD*%
D10*
%TO.C,R11*%
X154914000Y-54356000D03*
X158014000Y-54356000D03*
%TD*%
%TO.C,R5*%
X143230000Y-81280000D03*
X146330000Y-81280000D03*
%TD*%
D20*
%TO.C,R10*%
X171450000Y-54636000D03*
X171450000Y-51536000D03*
%TD*%
D21*
%TO.C,R6*%
X104140000Y-120116000D03*
X104140000Y-123216000D03*
%TD*%
D16*
%TO.C,REF\u002A\u002A*%
X172720000Y-130302000D03*
%TD*%
D22*
%TO.C,Q6*%
X157104500Y-80330000D03*
X157104500Y-82230000D03*
X159379500Y-81280000D03*
%TD*%
D16*
%TO.C,REF\u002A\u002A*%
X86868000Y-130302000D03*
%TD*%
D10*
%TO.C,R1*%
X143230000Y-91440000D03*
X146330000Y-91440000D03*
%TD*%
D22*
%TO.C,Q1*%
X149992500Y-90490000D03*
X149992500Y-92390000D03*
X152267500Y-91440000D03*
%TD*%
D21*
%TO.C,R15*%
X162560000Y-114782000D03*
X162560000Y-117882000D03*
%TD*%
%TO.C,R13*%
X165608000Y-114782000D03*
X165608000Y-117882000D03*
%TD*%
D23*
%TO.C,CP1*%
X111252000Y-111546000D03*
D24*
X111252000Y-114046000D03*
%TD*%
D19*
%TO.C,R7*%
X97054000Y-57912000D03*
X93954000Y-57912000D03*
%TD*%
D23*
%TO.C,CP2*%
X111252000Y-104354000D03*
D24*
X111252000Y-101854000D03*
%TD*%
D25*
%TO.C,PS2*%
X137014000Y-104312000D03*
X134474000Y-104312000D03*
X126854000Y-104312000D03*
X124314000Y-104312000D03*
X121774000Y-104312000D03*
%TD*%
D24*
%TO.C,J3*%
X101220000Y-111506000D03*
D26*
X99060000Y-106426000D03*
D27*
X99060000Y-108966000D03*
X99060000Y-111506000D03*
X99060000Y-114046000D03*
%TD*%
D22*
%TO.C,Q4*%
X157104500Y-85410000D03*
X157104500Y-87310000D03*
X159379500Y-86360000D03*
%TD*%
D10*
%TO.C,R12*%
X154914000Y-51816000D03*
X158014000Y-51816000D03*
%TD*%
D19*
%TO.C,R14*%
X165634000Y-126238000D03*
X162534000Y-126238000D03*
%TD*%
D21*
%TO.C,R4*%
X101346000Y-121692000D03*
X101346000Y-118592000D03*
%TD*%
D10*
%TO.C,R3*%
X143230000Y-86360000D03*
X146330000Y-86360000D03*
%TD*%
D28*
%TO.C,A1*%
X110744000Y-74920000D03*
D29*
X113284000Y-74920000D03*
X115824000Y-74920000D03*
X118364000Y-74920000D03*
X120904000Y-74920000D03*
X123444000Y-74920000D03*
X125984000Y-74920000D03*
X128524000Y-74920000D03*
X131064000Y-74920000D03*
X133604000Y-74920000D03*
X136144000Y-74920000D03*
X138684000Y-74920000D03*
X141224000Y-74920000D03*
X143764000Y-74920000D03*
X146304000Y-74920000D03*
X146304000Y-59680000D03*
X143764000Y-59680000D03*
X141224000Y-59680000D03*
X138684000Y-59680000D03*
X136144000Y-59680000D03*
X133604000Y-59680000D03*
X131064000Y-59680000D03*
X128524000Y-59680000D03*
X125984000Y-59680000D03*
X123444000Y-59680000D03*
X120904000Y-59680000D03*
X118364000Y-59680000D03*
X115824000Y-59680000D03*
X113284000Y-59680000D03*
X110744000Y-59680000D03*
%TD*%
D22*
%TO.C,Q3*%
X149992500Y-85410000D03*
X149992500Y-87310000D03*
X152267500Y-86360000D03*
%TD*%
%TO.C,Q2*%
X157104500Y-90490000D03*
X157104500Y-92390000D03*
X159379500Y-91440000D03*
%TD*%
%TO.C,Q5*%
X149992500Y-80330000D03*
X149992500Y-82230000D03*
X152267500Y-81280000D03*
%TD*%
D30*
%TO.C,PS1*%
X139954000Y-119126000D03*
X139954000Y-124206000D03*
X119634000Y-111506000D03*
X119634000Y-121666000D03*
X119634000Y-131826000D03*
X139954000Y-131826000D03*
%TD*%
D16*
%TO.C,REF\u002A\u002A*%
X86868000Y-44450000D03*
%TD*%
D19*
%TO.C,R9*%
X104166000Y-54356000D03*
X101066000Y-54356000D03*
%TD*%
D16*
%TO.C,REF\u002A\u002A*%
X172720000Y-44450000D03*
%TD*%
D31*
%TO.C,SW1*%
X133044000Y-85126000D03*
X126544000Y-85126000D03*
X133044000Y-89626000D03*
X126544000Y-89626000D03*
%TD*%
M02*
